<?xml version="1.0" standalone="no"?>
<!DOCTYPE svg PUBLIC "-//W3C//DTD SVG 20010904//EN"
 "http://www.w3.org/TR/2001/REC-SVG-20010904/DTD/svg10.dtd">
<svg version="1.0" xmlns="http://www.w3.org/2000/svg"
 width="2000.000000pt" height="2000.000000pt" viewBox="0 0 2000.000000 2000.000000"
 preserveAspectRatio="xMidYMid meet">
<metadata>
Created by potrace 1.14, written by Peter Selinger 2001-2017
</metadata>
<g transform="translate(0.000000,2000.000000) scale(0.100000,-0.100000)"
fill="#000000" stroke="none">
<path d="M8340 19830 l0 -170 -670 0 -670 0 0 -165 0 -165 -500 0 -500 0 0
-165 0 -165 -330 0 -330 0 0 -170 0 -170 -335 0 -335 0 0 -165 0 -165 -165 0
-165 0 0 -165 0 -165 -170 0 -170 0 0 -170 0 -170 -330 0 -330 0 0 -165 0
-165 -170 0 -170 0 0 -165 0 -165 -165 0 -165 0 0 -170 0 -170 -165 0 -165 0
0 -330 0 -330 -170 0 -170 0 0 -170 0 -170 -165 0 -165 0 0 -165 0 -165 -165
0 -165 0 0 -335 0 -335 -170 0 -170 0 0 -330 0 -330 -165 0 -165 0 0 -500 0
-500 -165 0 -165 0 0 -670 0 -670 -170 0 -170 0 0 -1665 0 -1665 170 0 170 0
0 -665 0 -665 165 0 165 0 0 -500 0 -500 165 0 165 0 0 -335 0 -335 170 0 170
0 0 -335 0 -335 165 0 165 0 0 -165 0 -165 165 0 165 0 0 -165 0 -165 170 0
170 0 0 -335 0 -335 165 0 165 0 0 -170 0 -170 165 0 165 0 0 -165 0 -165 170
0 170 0 0 -165 0 -165 330 0 330 0 0 -170 0 -170 170 0 170 0 0 -165 0 -165
165 0 165 0 0 -165 0 -165 335 0 335 0 0 -170 0 -170 330 0 330 0 0 -165 0
-165 500 0 500 0 0 -165 0 -165 670 0 670 0 0 -165 0 -165 1665 0 1665 0 0
165 0 165 665 0 665 0 0 165 0 165 500 0 500 0 0 165 0 165 335 0 335 0 0 170
0 170 335 0 335 0 0 165 0 165 165 0 165 0 0 165 0 165 165 0 165 0 0 170 0
170 335 0 335 0 0 165 0 165 170 0 170 0 0 165 0 165 165 0 165 0 0 170 0 170
165 0 165 0 0 335 0 335 170 0 170 0 0 165 0 165 165 0 165 0 0 165 0 165 165
0 165 0 0 335 0 335 170 0 170 0 0 335 0 335 165 0 165 0 0 500 0 500 165 0
165 0 0 665 0 665 165 0 165 0 0 1665 0 1665 -165 0 -165 0 0 670 0 670 -165
0 -165 0 0 500 0 500 -165 0 -165 0 0 330 0 330 -170 0 -170 0 0 335 0 335
-165 0 -165 0 0 165 0 165 -165 0 -165 0 0 170 0 170 -170 0 -170 0 0 330 0
330 -165 0 -165 0 0 170 0 170 -165 0 -165 0 0 165 0 165 -170 0 -170 0 0 165
0 165 -335 0 -335 0 0 170 0 170 -165 0 -165 0 0 165 0 165 -165 0 -165 0 0
165 0 165 -335 0 -335 0 0 170 0 170 -335 0 -335 0 0 165 0 165 -500 0 -500 0
0 165 0 165 -665 0 -665 0 0 170 0 170 -1665 0 -1665 0 0 -170z"/>
</g>
</svg>
